<svg width="521" height="116" viewBox="0 0 521 116" fill="none" xmlns="http://www.w3.org/2000/svg">
<path d="M51.0257 22.5191C52.2636 23.7008 52.7474 25.4001 52.8249 27.0678C52.84 27.8496 52.8345 28.6311 52.8274 29.413C52.8257 29.6997 52.8239 29.9864 52.8221 30.2732C52.8169 30.9974 52.8086 31.7216 52.7995 32.4459C52.7951 32.839 52.7924 33.2322 52.7903 33.6254C52.7631 38.1651 52.0475 41.571 48.9742 45.0385C48.8697 45.1576 48.7651 45.2766 48.6574 45.3993C46.0719 48.1632 42.4383 49.6314 38.7007 49.8942C35.6619 49.9904 32.5345 50.018 29.5948 49.1419C29.1514 49.0339 28.7624 49.0221 28.3079 49.04C28.3652 49.327 28.4225 49.6141 28.4815 49.9099C30.7877 50.8175 33.2726 50.8379 35.7188 50.8251C36.1455 50.8233 36.572 50.8251 36.9987 50.8273C39.1872 50.8296 41.3323 50.7013 43.4169 49.9751C43.5479 49.9301 43.6788 49.8851 43.8138 49.8387C47.4978 48.515 49.9091 46.0597 51.9265 42.7767C52.0985 42.5184 52.0985 42.5184 52.2739 42.2548C52.3885 42.2548 52.5031 42.2548 52.6212 42.2548C52.6521 45.4565 52.6809 48.6583 52.7071 51.8601C52.7194 53.3469 52.7323 54.8338 52.7469 56.3206C52.7596 57.6175 52.771 58.9144 52.7808 60.2113C52.7861 60.8972 52.792 61.583 52.7994 62.2688C52.8065 62.9162 52.8117 63.5637 52.8157 64.2111C52.8183 64.5581 52.8226 64.905 52.8271 65.2519C52.8393 67.8949 52.5942 70.7318 50.8845 72.8751C50.4069 73.3495 49.9256 73.7904 49.3215 74.0929C49.4221 75.6083 49.7405 77.0497 50.0725 78.5272C50.5978 80.8683 51.0753 83.1975 51.4055 85.5755C52.6664 85.6329 53.9272 85.6904 55.2262 85.7495C55.2473 85.4524 55.2683 85.1552 55.29 84.849C55.3884 83.676 55.5627 82.5259 55.7689 81.3674C55.8058 81.1592 55.8427 80.9511 55.8806 80.7366C56.2764 78.5986 56.8523 76.5196 57.4839 74.4409C57.3901 74.3855 57.2964 74.3302 57.1998 74.2732C55.5146 73.2534 54.7805 71.9225 54.2446 70.0418C53.8199 68.2812 53.8116 66.4972 53.8144 64.6954C53.8142 64.4546 53.8139 64.2138 53.8135 63.973C53.8127 63.3243 53.813 62.6755 53.8136 62.0268C53.814 61.3461 53.8136 60.6654 53.8133 59.9847C53.813 58.8431 53.8134 57.7015 53.8142 56.56C53.8152 55.2406 53.8149 53.9213 53.8139 52.6019C53.8131 51.467 53.813 50.3321 53.8135 49.1971C53.8138 48.5202 53.8138 47.8432 53.8132 47.1662C53.8127 46.5307 53.8131 45.8953 53.8141 45.2598C53.8144 44.9155 53.8139 44.5711 53.8133 44.2268C53.8138 44.0219 53.8143 43.8171 53.8148 43.606C53.8149 43.339 53.8149 43.339 53.815 43.0666C53.8346 42.6519 53.8919 42.303 54.0105 41.9069C54.1252 41.9069 54.2398 41.9069 54.3579 41.9069C54.656 42.3514 54.9375 42.7981 55.2154 43.2552C56.0829 44.6386 57.019 45.8028 58.1786 46.9522C58.3646 47.1443 58.3646 47.1443 58.5544 47.3403C61.2183 49.924 64.8784 50.6841 68.4249 51.1277C68.4249 50.8407 68.4249 50.5536 68.4249 50.2578C67.7183 49.9357 67.0545 49.8148 66.2866 49.7142C66.0688 49.685 65.851 49.6558 65.6265 49.6258C65.4611 49.6047 65.2957 49.5836 65.1252 49.5619C65.5527 48.9964 65.9587 48.5478 66.5363 48.1375C66.9091 47.8704 67.2316 47.6257 67.5565 47.3002C67.9906 47.2717 67.9906 47.2717 68.5368 47.2907C68.7358 47.2955 68.9349 47.3003 69.1399 47.3053C69.3517 47.3108 69.5635 47.3163 69.7817 47.3219C72.8094 47.357 74.9213 46.7709 77.2276 44.7014C78.4903 43.3796 79.2606 41.5737 79.7132 39.8191C80.4965 40.0209 80.8108 40.3947 81.2565 41.0288C81.951 42.308 82.0022 43.8429 81.7185 45.2566C81.6322 45.5329 81.5413 45.8077 81.4499 46.0823C81.3815 46.9028 81.5137 47.3518 81.9383 48.0505C82.8802 49.7056 83.3495 51.243 82.905 53.1584C82.2302 55.0933 80.7654 56.2617 79.0186 57.217C78.9066 57.28 78.7947 57.343 78.6794 57.408C77.3937 58.0099 75.7675 57.9369 74.4272 57.5799C73.1349 57.0975 71.9029 56.4662 70.6825 55.8252C70.5713 55.9321 70.46 56.0391 70.3454 56.1493C68.8834 57.5179 67.6874 58.1508 65.6645 58.1385C64.475 58.0246 63.0703 57.7535 61.9992 57.217C61.9614 57.7187 61.9614 57.7187 62.1729 58.2609C62.6568 58.5977 63.1779 58.7759 63.7359 58.9568C63.8626 58.9983 63.9893 59.0398 64.1199 59.0825C66.1207 59.6288 68.055 59.0267 69.8352 58.0611C70.2214 57.8143 70.4753 57.6323 70.6825 57.217C71.5467 57.3867 72.3086 57.8186 73.0976 58.1956C74.8409 58.9718 77.514 58.9338 79.2899 58.2935C79.7257 58.1013 80.1074 57.8833 80.5103 57.6281C80.9289 57.391 80.9289 57.391 81.4499 57.391C81.5063 59.142 81.3482 60.8319 80.2342 62.2624C79.8584 62.4798 79.8584 62.4798 79.5396 62.6103C79.2338 61.8028 78.9377 60.9962 78.6712 60.1746C78.3274 60.1746 77.9835 60.1746 77.6292 60.1746C77.6826 60.3351 77.6826 60.3351 77.7371 60.4988C78.5018 62.797 78.4976 64.3688 77.4556 66.6118C77.3801 66.7792 77.3047 66.9465 77.2269 67.1188C76.3272 68.942 74.828 70.5056 72.9402 71.3093C72.403 71.4284 71.9306 71.4654 71.3772 71.4833C71.4306 71.2784 71.4306 71.2784 71.4851 71.0694C72.2927 67.9144 72.3762 64.9711 70.7884 62.0259C70.1166 60.8581 70.1166 60.8581 69.0008 60.231C68.8681 60.2124 68.7353 60.1938 68.5985 60.1746C68.5941 60.3007 68.5896 60.4267 68.585 60.5566C68.5236 61.6042 68.4462 62.3153 67.7302 63.1323C67.4433 63.3674 67.1545 63.6002 66.8619 63.8282C66.8619 63.943 66.8619 64.0578 66.8619 64.1761C67.5279 64.138 67.7201 64.0126 68.1969 63.5237C68.5397 63.0412 68.7654 62.6472 68.9459 62.0884C69.6867 62.3534 69.9568 62.8076 70.3352 63.4802C71.2417 65.7263 71.3255 68.1507 70.5089 70.4394C69.5001 72.6901 68.0703 74.2265 65.771 75.2054C64.5559 75.6156 63.4503 75.7511 62.1729 75.6587C62.1543 75.8776 62.1357 76.0965 62.1166 76.322C62.0092 77.2885 61.7631 78.2013 61.5108 79.1383C60.9418 81.3204 60.5812 83.5187 60.2626 85.7495C60.3574 85.7484 60.4522 85.7472 60.5499 85.746C61.5416 85.7344 62.5334 85.7266 63.5252 85.7208C63.8947 85.7182 64.2643 85.7147 64.6338 85.7101C65.1667 85.7038 65.6995 85.7008 66.2323 85.6985C66.3961 85.6959 66.5599 85.6932 66.7286 85.6904C67.8577 85.6901 68.9029 85.7976 69.8034 86.5542C70.1861 87.4113 70.2985 88.3165 69.9662 89.2073C69.5662 89.8752 69.2081 90.1272 68.4797 90.3708C67.9058 90.4795 67.337 90.4711 66.7552 90.4695C66.6216 90.4698 66.488 90.4701 66.3503 90.4704C65.9033 90.4711 65.4563 90.4706 65.0092 90.4701C64.6902 90.4703 64.3711 90.4705 64.052 90.4708C63.189 90.4713 62.326 90.4706 61.463 90.4694C60.9258 90.4687 60.3885 90.4682 59.8512 90.4677C57.2675 90.4651 54.6839 90.4577 52.1002 90.4469C51.8337 90.4458 51.8337 90.4458 51.5618 90.4447C49.3936 90.4354 47.2254 90.4215 45.0573 90.4009C44.4425 90.3951 43.8277 90.3905 43.2128 90.3868C42.4919 90.3823 41.7711 90.3754 41.0502 90.3664C40.7875 90.3635 40.5248 90.3615 40.2622 90.3604C39.9044 90.3587 39.5469 90.3539 39.1893 90.3482C38.9899 90.3463 38.7905 90.3443 38.585 90.3423C37.7104 90.2324 37.1554 89.9466 36.5896 89.2726C36.2572 88.6313 36.1229 88.2133 36.1229 87.4893C36.3548 86.7893 36.631 86.3849 37.2652 85.9993C37.954 85.7098 38.5589 85.6638 39.2937 85.6544C39.4299 85.6508 39.5661 85.6473 39.7064 85.6437C39.9939 85.6367 40.2815 85.6309 40.569 85.6263C41.0024 85.6191 41.4355 85.6082 41.8688 85.5966C43.3803 85.561 44.8645 85.5746 46.3692 85.7495C45.7145 81.2697 45.7145 81.2697 44.6122 76.8875C44.4589 76.3547 44.4589 76.3547 44.4589 75.6587C44.1795 75.6749 44.1795 75.6749 43.8945 75.6914C41.3638 75.6824 39.1021 74.4488 37.3385 72.7011C35.8209 70.7791 35.2711 68.686 35.4282 66.2639C35.7939 63.8582 36.895 61.6945 38.8147 60.1801C40.9626 58.7039 43.2947 58.3211 45.8482 58.6088C46.4784 58.7339 47.0747 58.9285 47.6771 59.1525C48.1119 59.3338 48.1119 59.3338 48.6269 59.3047C48.6002 58.8802 48.6002 58.8802 48.4532 58.4348C46.7017 57.2615 43.9585 57.117 41.9645 57.5045C39.4257 58.2142 37.1599 59.7146 35.7009 61.9341C34.3598 64.404 34.1828 66.9361 34.7871 69.6402C34.8977 70.216 34.9297 70.7252 34.9072 71.3093C32.6878 70.9507 31.1117 69.7183 29.6972 68.0037C29.3198 67.3874 29.059 66.7739 28.8289 66.0899C28.774 65.934 28.7192 65.7782 28.6627 65.6176C28.1816 64.0836 28.0782 62.562 28.6552 61.0445C28.6844 60.479 28.6844 60.479 28.6552 60.0006C28.0528 60.1638 27.8289 60.2839 27.483 60.8162C27.2555 61.42 27.1562 61.9697 27.0922 62.6103C26.2425 62.2535 25.9414 61.6657 25.5292 60.8705C25.0923 59.7866 25.148 58.715 25.1819 57.5649C25.8743 57.638 26.4545 57.8205 27.0922 58.0869C29.0393 58.888 31.0172 58.7402 32.9969 58.0869C33.6558 57.7985 34.3014 57.4837 34.9378 57.1483C35.837 56.6885 35.837 56.6885 36.4533 56.7243C36.8567 56.8846 37.0358 57.0877 37.3385 57.391C37.5678 57.391 37.797 57.391 38.0332 57.391C37.9043 57.2654 37.7753 57.1398 37.6425 57.0104C37.4849 56.8489 37.3273 56.6874 37.1649 56.5211C37.0431 56.4027 36.9213 56.2842 36.7958 56.1622C36.2886 55.3661 36.1418 54.4801 35.9492 53.5634C35.7261 54.0104 35.7183 54.3926 35.6779 54.89C35.6633 55.0645 35.6488 55.239 35.6338 55.4188C35.6232 55.5529 35.6127 55.687 35.6019 55.8252C35.0088 56.0542 34.4153 56.2823 33.8218 56.5102C33.6537 56.5751 33.4856 56.6401 33.3123 56.7069C33.15 56.7692 32.9877 56.8314 32.8205 56.8955C32.5968 56.9816 32.5968 56.9816 32.3685 57.0695C30.7862 57.6338 28.5128 57.7625 26.9728 57.043C25.3159 56.0067 24.2926 54.5597 23.6813 52.7037C23.4133 51.1656 23.4808 49.6808 24.3135 48.3441C24.5086 48.0792 24.704 47.8147 24.8997 47.5503C25.3435 46.9072 25.3435 46.9072 25.247 46.1041C25.2065 45.9906 25.166 45.8771 25.1242 45.7602C24.6537 44.2442 25.0612 42.357 25.7327 40.9622C26.0968 40.3476 26.4539 39.8239 27.0922 39.4711C27.2068 39.4711 27.3215 39.4711 27.4395 39.4711C27.5219 39.6721 27.6043 39.873 27.6892 40.0801C28.5 41.6846 29.9755 42.5211 31.6075 43.1247C31.7233 43.1675 31.839 43.2104 31.9583 43.2545C33.4445 43.709 35.0279 43.5259 36.5245 43.2334C37.5645 43.0679 37.5645 43.0679 38.0807 43.3096C38.303 43.4914 38.519 43.6813 38.7279 43.8784C39.8887 44.8482 41.6133 45.0671 43.0695 45.0385C43.0336 44.6956 43.0336 44.6956 42.8959 44.3426C42.6051 44.1678 42.6051 44.1678 42.2379 44.0829C42.1029 44.0428 41.9679 44.0027 41.8288 43.9613C41.5457 43.8832 41.2626 43.8052 40.9794 43.7275C39.7298 43.3554 38.8203 42.7599 38.1418 41.6241C37.7257 40.7585 37.6508 40.0764 37.6316 39.1123C37.6219 38.7917 37.6219 38.7917 37.6119 38.4647C37.6859 37.9053 37.6859 37.9053 37.9966 37.5859C38.335 37.4074 38.6636 37.2474 39.0209 37.1116C39.6088 36.9293 39.6088 36.9293 39.7699 36.5135C39.5729 36.5709 39.3759 36.6283 39.1729 36.6875C38.3858 36.8801 37.6237 36.9916 36.8175 36.8615C36.2314 36.5026 36.2314 36.5026 35.7755 36.1656C35.5177 36.2517 35.5177 36.2517 35.2545 36.3395C35.8585 36.9972 35.8585 36.9972 36.6439 37.3834C36.6273 37.5159 36.6108 37.6485 36.5937 37.785C36.4678 38.9595 36.4946 39.9047 36.8175 41.037C36.8766 41.3267 36.9351 41.6165 36.9912 41.9069C35.9172 42.6241 34.1803 42.5057 32.9209 42.3595C31.349 42.0109 29.8736 41.2822 28.8716 39.9883C27.9129 38.4678 27.5985 36.8654 27.9714 35.1108C28.4324 33.4901 29.2848 32.3198 30.7392 31.4681C31.0399 31.3281 31.3407 31.1882 31.6427 31.051C32.7715 30.5327 33.4472 30.0342 34.1054 28.9549C35.1125 27.361 36.6042 26.3761 38.3744 25.7873C38.8574 25.7047 39.3238 25.7106 39.8133 25.7159C40.094 25.7183 40.094 25.7183 40.3804 25.7207C40.5228 25.7227 40.6652 25.7247 40.8119 25.7268C40.8216 25.9603 40.8216 25.9603 40.8316 26.1985C40.955 28.4723 41.3197 30.1002 42.8959 31.8161C44.2646 33.018 45.8492 33.3786 47.5849 33.7298C47.7568 34.3327 47.7568 34.3327 47.9322 34.9477C48.1615 35.0051 48.3907 35.0625 48.6269 35.1217C48.5893 35.0248 48.5517 34.9279 48.5129 34.8281C48.0853 33.6539 47.8627 32.6647 48.3664 31.4681C48.4953 31.2098 48.4953 31.2098 48.6269 30.9462C48.0553 31.1437 47.9329 31.2929 47.6283 31.8378C47.5208 32.0854 47.5208 32.0854 47.4112 32.338C46.063 32.4555 44.8688 32.009 43.7968 31.1854C42.8025 30.2623 42.2556 28.9213 42.1598 27.5849C42.1263 25.8623 42.2481 24.4561 43.4603 23.1389C45.424 21.3676 48.84 20.8352 51.0257 22.5191Z" fill="white"/>
<path d="M114.62 33.9041C117.199 33.9041 119.778 33.9041 122.435 33.9041C123.652 37.3867 124.869 40.8694 126.082 44.3537C127.189 47.5326 128.296 50.7113 129.403 53.8899C129.445 54.0079 129.486 54.1259 129.528 54.2474C130.864 58.0807 132.203 61.9127 133.55 65.7422C134.093 64.4411 134.546 63.1217 134.974 61.7787C135.043 61.5655 135.111 61.3523 135.182 61.1327C135.367 60.5565 135.552 59.9801 135.736 59.4036C135.931 58.7949 136.126 58.1864 136.321 57.5779C136.788 56.1241 137.253 54.67 137.718 53.2157C137.815 52.9114 137.815 52.9114 137.914 52.6009C138.426 51.0018 138.936 49.4024 139.447 47.803C140.323 45.0561 141.202 42.31 142.084 39.5647C142.233 39.0987 142.383 38.6327 142.532 38.1667C142.739 37.5196 142.947 36.8726 143.155 36.2256C143.217 36.0305 143.28 35.8354 143.344 35.6344C143.43 35.3678 143.43 35.3678 143.518 35.0957C143.567 34.9404 143.617 34.7851 143.669 34.625C143.796 34.252 143.796 34.252 143.97 33.9041C146.549 33.9041 149.128 33.9041 151.785 33.9041C151.785 49.463 151.785 65.0219 151.785 81.0523C149.722 81.0523 147.658 81.0523 145.533 81.0523C145.475 69.8568 145.418 58.6612 145.359 47.1264C142.585 55.578 142.585 55.578 139.815 64.0309C139.245 65.7694 139.245 65.7694 138.976 66.5903C138.789 67.1617 138.602 67.7332 138.415 68.3048C138.178 69.0314 137.94 69.7578 137.702 70.4841C137.614 70.7511 137.527 71.0182 137.44 71.2853C137.321 71.6479 137.202 72.0104 137.083 72.3728C136.984 72.6776 136.984 72.6776 136.882 72.9884C136.295 74.6488 136.295 74.6488 135.981 74.9631C135.27 75.0134 134.558 75.0177 133.845 75.024C133.605 75.0268 133.366 75.0316 133.126 75.0382C132.781 75.0478 132.436 75.051 132.091 75.0541C131.884 75.0576 131.677 75.061 131.463 75.0646C130.945 74.9631 130.945 74.9631 130.674 74.5807C130.432 74.1091 130.242 73.6507 130.066 73.1505C130 72.9641 129.934 72.7776 129.866 72.5854C129.761 72.2822 129.761 72.2822 129.653 71.9728C129.538 71.6459 129.423 71.319 129.308 70.992C129.185 70.6431 129.062 70.294 128.94 69.9448C128.685 69.2143 128.428 68.4842 128.17 67.7543C128.127 67.6318 128.084 67.5092 128.04 67.383C127.952 67.1342 127.864 66.8853 127.777 66.6365C127.644 66.2597 127.511 65.8828 127.379 65.5058C126.553 63.1604 125.717 60.819 124.877 58.4786C123.479 54.5803 122.089 50.6794 120.698 46.7785C120.641 58.0888 120.584 69.3992 120.525 81.0523C118.576 81.0523 116.628 81.0523 114.62 81.0523C114.62 65.4934 114.62 49.9345 114.62 33.9041Z" fill="white"/>
<path d="M203.537 33.9041C217.462 33.9041 217.462 33.9041 220.698 34.8827C220.92 34.9489 220.92 34.9489 221.147 35.0165C225.415 36.36 228.499 39.2093 230.618 43.1133C231.503 44.8351 232.07 46.6477 232.507 48.5291C232.558 48.7475 232.558 48.7475 232.609 48.9703C233.171 51.5744 233.295 54.1658 233.289 56.8218C233.288 57.3332 233.292 57.8445 233.297 58.3559C233.317 64.3456 232.123 70.7108 228.024 75.311C227.896 75.4557 227.768 75.6003 227.636 75.7494C224.274 79.3325 219.855 80.2705 215.173 81.0523C211.333 81.0523 207.493 81.0523 203.537 81.0523C203.537 65.4934 203.537 49.9345 203.537 33.9041ZM209.789 38.7755C209.789 51.0618 209.789 63.3482 209.789 76.0069C212.295 76.0261 212.295 76.0261 214.782 75.8764C214.935 75.861 215.087 75.8456 215.245 75.8297C218.665 75.4474 221.553 74.113 223.802 71.4617C225.724 68.8345 226.489 65.4495 226.808 62.2626C226.828 62.0722 226.847 61.8818 226.867 61.6856C227.355 55.7679 227.403 48.0949 223.498 43.1976C221.068 40.3793 218.073 39.29 214.478 38.7755C212.931 38.7755 211.383 38.7755 209.789 38.7755Z" fill="white"/>
<path d="M357.753 34.0779C371.24 34.0779 371.24 34.0779 373.839 34.7955C373.974 34.8321 374.109 34.8687 374.247 34.9064C376.295 35.4976 378.223 36.4686 379.809 37.9054C379.914 37.9976 380.02 38.0898 380.129 38.1847C382.387 40.2771 383.489 43.4505 383.661 46.4696C383.824 50.7599 383.466 54.582 380.503 57.913C380.404 58.0283 380.305 58.1435 380.203 58.2623C378.97 59.6036 377.361 60.4633 375.814 61.3926C377.905 64.9798 377.905 64.9798 380.029 68.5476C380.559 69.4288 381.085 70.3121 381.608 71.1972C381.676 71.3115 381.744 71.4259 381.813 71.5437C382.095 72.0195 382.376 72.4954 382.657 72.9714C383.437 74.2901 384.221 75.6057 385.019 76.9134C385.088 77.0268 385.157 77.1402 385.228 77.2571C385.558 77.7976 385.888 78.3374 386.22 78.8764C386.395 79.1615 386.395 79.1615 386.573 79.4524C386.675 79.6192 386.778 79.786 386.884 79.9579C387.103 80.3562 387.103 80.3562 387.103 80.7042C384.868 80.7042 382.632 80.7042 380.33 80.7042C378.981 78.3461 377.634 75.9887 376.314 73.6146C375.43 72.0266 374.524 70.4532 373.605 68.8857C372.719 67.3716 371.863 65.8422 371.013 64.3077C370.916 64.1336 370.82 63.9594 370.72 63.78C370.635 63.6253 370.549 63.4705 370.461 63.3111C370.284 62.971 370.284 62.971 370.083 62.7844C367.905 62.727 365.728 62.6696 363.484 62.6104C363.484 68.5814 363.484 74.5523 363.484 80.7042C361.593 80.7042 359.701 80.7042 357.753 80.7042C357.753 65.3175 357.753 49.9308 357.753 34.0779ZM363.484 38.6013C363.484 45.0316 363.484 51.4618 363.484 58.087C370.16 58.3619 370.16 58.3619 375.757 55.4236C377.506 53.3985 378.022 50.604 377.936 47.9874C377.747 45.4253 377.292 42.9526 375.467 41.037C375.374 40.9393 375.282 40.8415 375.186 40.7407C372.166 37.8742 367.155 38.6013 363.484 38.6013Z" fill="white"/>
<path d="M278.208 33.8843C278.516 33.8843 278.824 33.8853 279.132 33.887C279.293 33.8873 279.455 33.8875 279.622 33.8878C280.14 33.8888 280.659 33.8909 281.177 33.8932C281.528 33.894 281.878 33.8948 282.229 33.8955C283.09 33.8975 283.952 33.9005 284.813 33.904C286.23 38.5208 287.616 43.1464 288.981 47.7788C289.019 47.9088 289.058 48.0387 289.097 48.1725C289.294 48.8396 289.49 49.5068 289.687 50.1739C289.726 50.3077 289.766 50.4414 289.806 50.5792C289.886 50.8508 289.966 51.1225 290.046 51.3941C290.879 54.2188 291.716 57.0422 292.554 59.8651C292.751 60.5284 292.948 61.1918 293.144 61.8552C293.936 64.5219 294.728 67.1882 295.523 69.8538C295.836 70.9049 296.149 71.956 296.462 73.0072C296.718 73.8659 296.974 74.7245 297.231 75.5829C297.389 76.112 297.546 76.6412 297.704 77.1704C297.777 77.4155 297.85 77.6606 297.923 77.9055C298.024 78.241 298.123 78.5767 298.223 78.9124C298.307 79.1937 298.307 79.1937 298.393 79.4808C298.53 79.997 298.619 80.5253 298.706 81.0523C296.529 81.0523 294.351 81.0523 292.107 81.0523C290.893 76.9502 289.768 72.8248 288.634 68.6998C283.533 68.6998 278.433 68.6998 273.177 68.6998C272.099 72.6347 272.099 72.6347 271.021 76.5699C270.813 77.3303 270.813 77.3303 270.715 77.6861C270.647 77.935 270.578 78.1839 270.51 78.4329C270.407 78.8096 270.304 79.1863 270.2 79.5629C270.142 79.7753 270.084 79.9878 270.024 80.2068C269.878 80.7043 269.878 80.7043 269.704 81.0523C267.641 81.0523 265.578 81.0523 263.452 81.0523C264.249 77.8593 264.249 77.8593 264.7 76.3895C264.752 76.2209 264.803 76.0523 264.855 75.8786C264.966 75.5145 265.077 75.1504 265.188 74.7865C265.499 73.7648 265.808 72.7423 266.118 71.72C266.216 71.3944 266.216 71.3944 266.317 71.0623C267.038 68.6819 267.748 66.2986 268.458 63.9149C268.565 63.5549 268.672 63.1948 268.779 62.8348C269.827 59.3169 270.872 55.7982 271.917 52.2795C272.736 49.5222 273.555 46.7651 274.375 44.0081C274.572 43.3429 274.77 42.6778 274.968 42.0126C275.356 40.7043 275.745 39.3961 276.136 38.0881C276.246 37.7162 276.357 37.3441 276.468 36.972C276.615 36.4759 276.763 35.98 276.911 35.4841C276.954 35.3412 276.996 35.1982 277.039 35.051C277.383 33.9079 277.383 33.9079 278.208 33.8843ZM280.992 40.8632C279.554 45.8337 278.128 50.8077 276.717 55.786C276.608 56.1716 276.498 56.5571 276.389 56.9426C276.215 57.5567 276.041 58.1708 275.867 58.7851C275.773 59.1181 275.678 59.4511 275.583 59.784C275.526 59.9883 275.468 60.1927 275.409 60.4032C275.334 60.6659 275.334 60.6659 275.258 60.934C275.015 61.8374 274.793 62.7466 274.567 63.6544C278.808 63.6544 283.049 63.6544 287.418 63.6544C285.922 58.1917 284.424 52.7296 282.925 47.2678C282.881 47.1089 282.837 46.9501 282.792 46.7865C282.25 44.812 281.708 42.8376 281.166 40.8632C281.109 40.8632 281.052 40.8632 280.992 40.8632Z" fill="white"/>
<path d="M323.02 34.0779C324.911 34.0779 326.802 34.0779 328.751 34.0779C328.808 40.5656 328.865 47.0532 328.924 53.7375C330.042 52.1012 330.042 52.1012 331.182 50.4319C332.235 49.0183 332.235 49.0183 332.752 48.336C333.373 47.5113 333.964 46.6663 334.557 45.8203C335.466 44.522 336.394 43.2375 337.323 41.9532C337.794 41.3004 338.265 40.6467 338.736 39.9932C339.317 39.1878 339.898 38.3824 340.478 37.5772C340.63 37.3674 340.63 37.3674 340.784 37.1534C340.976 36.8879 341.167 36.6224 341.359 36.3569C341.446 36.2357 341.534 36.1145 341.624 35.9896C341.737 35.8323 341.737 35.8323 341.853 35.6718C342.12 35.3152 342.12 35.3152 342.295 34.9856C342.801 34.1401 342.801 34.1401 343.316 33.9717C343.71 33.9369 344.087 33.9407 344.482 33.959C344.694 33.9615 344.694 33.9615 344.91 33.9642C345.36 33.971 345.809 33.9863 346.258 34.0018C346.564 34.0079 346.87 34.0134 347.175 34.0184C347.923 34.0318 348.67 34.0528 349.417 34.0779C349.2 34.5361 348.967 34.9382 348.659 35.3406C348.578 35.4478 348.497 35.5549 348.413 35.6653C348.325 35.7802 348.237 35.8951 348.147 36.0134C347.378 37.0301 346.621 38.0546 345.878 39.0907C344.597 40.8755 343.293 42.6435 341.989 44.4115C340.803 46.0189 339.624 47.6304 338.459 49.2527C337.868 50.0736 337.272 50.8903 336.672 51.704C336.365 52.1198 336.06 52.5365 335.755 52.9532C335.384 53.4589 335.007 53.9595 334.625 54.4565C334.461 54.6735 334.298 54.8906 334.134 55.1076C334.02 55.2518 334.02 55.2518 333.903 55.399C333.67 55.697 333.67 55.697 333.44 56.1732C333.572 57.0497 334.331 57.7811 334.872 58.4567C335.739 59.5552 336.588 60.6638 337.412 61.7949C338.274 62.9761 339.151 64.1452 340.039 65.3071C341.021 66.5922 341.986 67.8875 342.941 69.1931C343.813 70.383 344.706 71.556 345.602 72.7282C346.476 73.8739 347.333 75.0308 348.182 76.1947C348.985 77.2921 349.809 78.3722 350.648 79.4424C350.738 79.5576 350.827 79.6728 350.919 79.7915C350.998 79.8926 351.077 79.9936 351.159 80.0977C351.327 80.3563 351.327 80.3563 351.327 80.7042C345.393 81.2238 345.393 81.2238 343.852 80.4331C343.058 79.7212 342.618 78.8228 342.179 77.8636C341.799 77.0949 341.277 76.444 340.755 75.7676C340.553 75.4941 340.352 75.2202 340.151 74.9459C339.355 73.8687 338.539 72.806 337.726 71.7417C337.023 70.8202 336.339 69.8895 335.674 68.9407C335.011 68.0013 334.312 67.09 333.613 66.177C332.693 64.9742 331.789 63.7644 330.922 62.5228C330.272 61.6128 329.595 60.7221 328.924 59.8268C328.867 66.7163 328.81 73.6059 328.751 80.7042C326.859 80.7042 324.968 80.7042 323.02 80.7042C323.02 65.3175 323.02 49.9308 323.02 34.0779Z" fill="white"/>
<path d="M434.341 34.0779C436.576 34.0779 438.811 34.0779 441.114 34.0779C441.895 36.035 441.895 36.035 442.113 36.7851C442.189 37.0421 442.189 37.0421 442.266 37.3042C442.319 37.4865 442.371 37.6687 442.426 37.8565C442.484 38.0543 442.541 38.2521 442.601 38.4559C442.76 38.9988 442.918 39.5419 443.076 40.0851C443.247 40.6711 443.418 41.2568 443.59 41.8426C443.625 41.9628 443.66 42.0831 443.697 42.207C443.769 42.4539 443.841 42.7008 443.914 42.9477C444.025 43.3279 444.136 43.7082 444.248 44.0884C445.052 46.8358 445.866 49.58 446.682 52.324C446.882 52.999 447.083 53.674 447.283 54.349C447.527 55.1699 447.771 55.9908 448.014 56.8117C448.555 58.6323 449.096 60.453 449.636 62.2738C449.761 62.6962 449.887 63.1185 450.012 63.5409C450.379 64.7783 450.746 66.0157 451.113 67.2532C451.859 69.7668 452.605 72.2802 453.356 74.7923C453.472 75.1828 453.589 75.5733 453.705 75.9638C453.915 76.6674 454.126 77.3707 454.337 78.0739C454.428 78.378 454.519 78.6821 454.609 78.9862C454.65 79.1223 454.691 79.2584 454.734 79.3987C455.007 80.3167 455.007 80.3167 455.007 80.7042C453.001 80.7042 450.995 80.7042 448.929 80.7042C448.169 78.1432 447.443 75.5744 446.739 72.9977C446.643 72.6475 446.547 72.2973 446.45 71.9472C446.314 71.4491 446.178 70.9508 446.042 70.4524C446 70.3008 445.959 70.1493 445.916 69.9932C445.859 69.7834 445.859 69.7834 445.801 69.5693C445.768 69.4471 445.734 69.3249 445.7 69.1989C445.629 68.8736 445.629 68.8736 445.629 68.3517C440.299 68.3517 434.969 68.3517 429.478 68.3517C429.421 68.7536 429.363 69.1555 429.304 69.5696C429.215 69.9393 429.119 70.3074 429.016 70.6737C428.958 70.8844 428.899 71.0951 428.839 71.3122C428.775 71.5387 428.711 71.7652 428.648 71.9917C428.582 72.2266 428.516 72.4616 428.451 72.6965C428.279 73.312 428.107 73.9272 427.934 74.5424C427.793 75.0453 427.652 75.5483 427.512 76.0513C427.344 76.6518 427.177 77.2522 427.009 77.8526C426.961 78.024 426.961 78.024 426.912 78.1989C426.821 78.522 426.731 78.8451 426.64 79.1681C426.563 79.4437 426.563 79.4437 426.484 79.7248C426.389 80.0534 426.286 80.3797 426.178 80.7042C424.287 80.7042 422.396 80.7042 420.447 80.7042C420.798 79.297 421.166 77.9135 421.588 76.5287C421.649 76.3287 421.709 76.1287 421.772 75.9226C421.904 75.486 422.036 75.0495 422.169 74.6131C422.542 73.3827 422.914 72.1516 423.285 70.9206C423.325 70.7894 423.364 70.6583 423.405 70.5231C424.334 67.443 425.25 64.3589 426.165 61.2744C426.573 59.8979 426.982 58.5215 427.391 57.145C427.438 56.9866 427.485 56.8281 427.533 56.6649C428.775 52.4806 430.022 48.2974 431.269 44.1147C431.522 43.2675 431.774 42.4202 432.027 41.5728C432.324 40.5743 432.622 39.5758 432.92 38.5775C433.031 38.2068 433.141 37.8361 433.252 37.4654C433.403 36.9576 433.554 36.4499 433.706 35.9423C433.751 35.7924 433.795 35.6425 433.841 35.4881C434.147 34.4656 434.147 34.4656 434.341 34.0779ZM437.64 39.8192C436.047 45.3082 434.483 50.8054 432.932 56.3067C432.788 56.8164 432.644 57.3261 432.5 57.8357C432.272 58.6452 432.044 59.4547 431.816 60.2644C431.731 60.5672 431.645 60.8699 431.56 61.1727C431.443 61.5886 431.325 62.0046 431.209 62.4206C431.156 62.6058 431.156 62.6058 431.103 62.7947C430.937 63.3037 430.937 63.3037 430.867 63.8283C435.337 63.8283 439.808 63.8283 444.413 63.8283C443.305 59.7735 442.195 55.7193 441.072 51.6688C441.033 51.5293 440.994 51.3899 440.954 51.2462C440.568 49.8529 440.181 48.4597 439.794 47.0667C439.647 46.5399 439.501 46.0131 439.355 45.4862C439.255 45.1267 439.155 44.7672 439.055 44.4077C438.63 42.881 438.219 41.3512 437.814 39.8192C437.757 39.8192 437.699 39.8192 437.64 39.8192Z" fill="white"/>
<path d="M166.894 33.9041C174.573 33.9041 182.253 33.9041 190.165 33.9041C190.165 35.6264 190.165 37.3488 190.165 39.1234C181.826 39.2095 181.826 39.2095 173.319 39.2974C173.319 44.2349 173.319 49.1724 173.319 54.2596C180.712 54.3457 180.712 54.3457 188.255 54.4336C188.255 56.1559 188.255 57.8783 188.255 59.6529C183.326 59.7103 178.397 59.7677 173.319 59.8269C173.319 65.0515 173.319 70.2761 173.319 75.659C178.878 75.7164 184.437 75.7738 190.165 75.8329C190.165 77.5553 190.165 79.2777 190.165 81.0523C182.485 81.0523 174.806 81.0523 166.894 81.0523C166.894 65.4934 166.894 49.9345 166.894 33.9041Z" fill="white"/>
<path d="M482.62 36.1657C484.202 37.5206 485.409 39.3184 486.267 41.2111C486.267 41.3833 486.267 41.5555 486.267 41.733C485.559 41.9958 484.849 42.2561 484.14 42.5159C483.838 42.6279 483.838 42.6279 483.53 42.7422C483.336 42.8129 483.143 42.8835 482.943 42.9563C482.765 43.0219 482.587 43.0875 482.403 43.1551C481.925 43.2988 481.925 43.2988 481.231 43.2988C481.151 43.1311 481.071 42.9633 480.989 42.7905C480.882 42.5684 480.774 42.3464 480.666 42.1245C480.614 42.0141 480.562 41.9038 480.508 41.7901C480.187 41.1332 479.848 40.6674 479.32 40.1672C479.32 40.0524 479.32 39.9375 479.32 39.8192C479.231 39.7798 479.141 39.7403 479.049 39.6996C478.685 39.503 478.398 39.299 478.072 39.0472C476 37.5338 472.934 37.6854 470.511 37.9857C468.675 38.3982 467 39.2639 465.948 40.8631C464.924 42.6364 464.895 44.846 465.289 46.8151C465.639 48.0464 466.178 49.0795 467.164 49.91C467.264 50.0002 467.365 50.0903 467.468 50.1832C468.248 50.8442 469.081 51.337 469.994 51.7884C470.115 51.8487 470.236 51.909 470.361 51.971C471.553 52.5557 472.77 53.0708 473.996 53.5762C479.676 55.9241 479.676 55.9241 481.752 57.7391C481.868 57.831 481.985 57.923 482.105 58.0177C484.62 60.0626 485.969 63.2001 486.397 66.3619C486.417 66.6189 486.431 66.8764 486.441 67.1339C486.45 67.3115 486.459 67.4892 486.468 67.6722C486.531 70.0045 486.176 72.2025 485.051 74.267C484.975 74.413 484.898 74.559 484.819 74.7095C484.175 75.8611 483.368 76.8078 482.446 77.7466C482.34 77.8558 482.233 77.9651 482.123 78.0776C480.466 79.6448 478.347 80.571 476.194 81.2262C475.943 81.3096 475.943 81.3096 475.686 81.3947C471.813 82.5048 467.203 81.7245 463.69 79.8344C460.743 78.0986 458.622 75.5714 457.438 72.3533C457.438 72.2385 457.438 72.1236 457.438 72.0053C458.179 71.7091 458.921 71.4165 459.664 71.1246C459.875 71.0401 460.086 70.9557 460.303 70.8687C460.505 70.7896 460.707 70.7106 460.915 70.6291C461.102 70.5553 461.288 70.4815 461.48 70.4055C461.954 70.2655 461.954 70.2655 462.475 70.4395C462.635 70.7759 462.635 70.7759 462.779 71.2115C463.635 73.4808 465.278 75.1198 467.46 76.1366C470.446 77.2755 473.502 77.0981 476.456 76.0225C478.193 75.2358 479.335 73.8206 480.021 72.0678C480.762 69.5953 480.631 66.5008 479.57 64.1545C477.662 60.6066 473.275 59.3788 469.805 57.8773C467.457 56.8605 465.282 55.7946 463.343 54.0855C463.123 53.8927 463.123 53.8927 462.898 53.6961C460.673 51.6203 459.492 48.8656 459.314 45.8324C459.273 42.7146 459.953 39.8481 462.041 37.4597C462.298 37.1988 462.558 36.9411 462.822 36.6876C462.924 36.5797 463.027 36.4719 463.132 36.3607C468.005 31.5646 477.575 32.179 482.62 36.1657Z" fill="white"/>
<path d="M393.528 34.0779C401.036 34.0779 408.544 34.0779 416.279 34.0779C416.279 35.628 416.279 37.1782 416.279 38.7753C410.662 38.7753 405.046 38.7753 399.259 38.7753C399.259 44.0573 399.259 49.3393 399.259 54.7814C404.245 54.7814 409.231 54.7814 414.368 54.7814C414.368 56.2741 414.368 57.7668 414.368 59.3048C409.382 59.3048 404.396 59.3048 399.259 59.3048C399.259 64.8165 399.259 70.3281 399.259 76.0068C404.876 76.0068 410.492 76.0068 416.279 76.0068C416.279 77.5569 416.279 79.1071 416.279 80.7042C408.771 80.7042 401.263 80.7042 393.528 80.7042C393.528 65.3175 393.528 49.9308 393.528 34.0779Z" fill="white"/>
<path d="M62.0331 22.4594C63.2545 23.2969 64.0452 24.4744 64.4305 25.901C64.6165 27.8699 64.4121 29.2716 63.1823 30.8159C62.0681 32.008 60.8088 32.4636 59.2205 32.6861C59.1732 32.5415 59.1732 32.5415 59.1249 32.3939C59.0812 32.2679 59.0375 32.1418 58.9926 32.012C58.9503 31.8868 58.9079 31.7617 58.8644 31.6327C58.7059 31.2352 58.7059 31.2352 58.1785 30.9463C58.2664 31.3237 58.3521 31.6422 58.5258 31.9902C58.5186 33.19 58.3874 34.2297 57.8312 35.2958C58.0604 35.2958 58.2897 35.2958 58.5258 35.2958C58.5688 35.1343 58.6118 34.9729 58.6561 34.8065C58.8981 34.1881 59.0142 34.0655 59.5678 33.73C59.9549 33.6087 60.3464 33.5011 60.7401 33.4038C61.7738 33.1255 62.5139 32.7708 63.3885 32.1642C63.5031 32.1642 63.6177 32.1642 63.7358 32.1642C63.7824 32.0651 63.829 31.9659 63.8769 31.8638C64.1626 31.3159 64.5199 30.8266 64.8755 30.3225C65.4339 29.3831 65.5303 28.4886 65.5702 27.4233C65.6251 26.1172 65.6251 26.1172 65.8198 25.727C68.3339 25.8977 70.5779 26.7299 72.3323 28.5868C72.7692 29.1 73.0075 29.5029 73.179 30.1526C73.2721 30.3571 73.3652 30.5616 73.4612 30.7724C73.8924 30.9334 74.2984 30.9915 74.7542 31.0517C75.9639 31.2388 76.7175 32.0377 77.4793 32.9342C78.8361 34.8121 79.0818 36.8791 78.7709 39.139C78.3377 41.1224 77.4154 43.3134 75.7188 44.5167C73.9304 45.6015 71.6137 46.8465 69.4702 46.3509C69.1773 46.2695 68.8875 46.177 68.5985 46.0825C68.611 45.9706 68.6236 45.8587 68.6365 45.7434C68.7522 44.6151 68.7649 43.5351 68.6935 42.4024C68.7722 41.907 68.7722 41.907 69.1873 41.4931C69.6405 41.2111 69.6405 41.2111 69.9878 41.2111C70.0452 40.924 70.1025 40.637 70.1615 40.3412C69.6552 40.5281 69.3317 40.6505 68.9458 41.0371C68.4486 41.0772 68.4486 41.0772 67.8496 41.0697C67.5551 41.0681 67.5551 41.0681 67.2546 41.0663C66.7562 41.0406 66.3047 40.977 65.8198 40.8631C65.9341 41.405 65.9341 41.405 66.3463 41.576C66.4878 41.6314 66.6292 41.6868 66.775 41.7439C67.5387 42.0453 67.5387 42.0453 67.7302 42.4289C67.9155 43.9092 67.6036 45.1442 66.8618 46.4305C66.5039 46.8764 66.1297 47.1731 65.6462 47.4743C65.5152 47.5584 65.3843 47.6425 65.2493 47.7292C64.1833 48.3402 63.2176 48.5834 61.9992 48.3442C61.3455 48.0864 60.8212 47.7238 60.2625 47.3004C59.9905 47.0945 59.9905 47.0945 59.713 46.8844C56.73 44.5333 54.3249 40.8507 53.8512 37.0276C53.8307 36.8388 53.8307 36.8388 53.8097 36.6462C53.795 36.5111 53.7802 36.376 53.765 36.2368C53.6132 34.6801 53.6654 33.1371 53.7283 31.577C53.7435 31.1491 53.758 30.7213 53.7725 30.2934C53.7818 30.0187 53.7915 29.744 53.8015 29.4694C53.8345 28.5372 53.843 27.6074 53.8279 26.6745C53.8602 25.134 54.3936 24.076 55.4975 23.0086C57.3838 21.4274 59.9012 21.2738 62.0331 22.4594Z" fill="white"/>
<path d="M247.302 33.9041C249.365 33.9041 251.428 33.9041 253.554 33.9041C253.554 49.463 253.554 65.0219 253.554 81.0523C251.491 81.0523 249.427 81.0523 247.302 81.0523C247.302 65.4934 247.302 49.9345 247.302 33.9041Z" fill="white"/>
<path d="M495.645 34.0779C497.536 34.0779 499.427 34.0779 501.376 34.0779C501.376 49.4646 501.376 64.8513 501.376 80.7042C499.484 80.7042 497.593 80.7042 495.645 80.7042C495.645 65.3175 495.645 49.9308 495.645 34.0779Z" fill="white"/>
<path d="M39.0959 98.4058C39.2798 98.405 39.2798 98.405 39.4673 98.4042C39.877 98.4028 40.2867 98.4039 40.6963 98.405C40.9905 98.4045 41.2846 98.4039 41.5788 98.4031C42.3772 98.4015 43.1755 98.4021 43.9739 98.4032C44.8098 98.4041 45.6457 98.4033 46.4817 98.4028C47.8858 98.4021 49.29 98.403 50.6941 98.4046C52.3164 98.4065 53.9387 98.4059 55.561 98.404C56.9544 98.4024 58.3479 98.4022 59.7414 98.4031C60.5734 98.4036 61.4054 98.4037 62.2373 98.4026C63.0199 98.4015 63.8025 98.4023 64.585 98.4043C64.8718 98.4047 65.1587 98.4046 65.4455 98.4038C65.8378 98.4029 66.2301 98.4041 66.6225 98.4058C66.8418 98.4059 67.0611 98.4061 67.287 98.4062C68.2336 98.4734 68.9105 98.6071 69.6184 99.2546C70.0838 99.9952 70.1611 100.36 70.1611 101.234C69.9221 101.868 69.6541 102.375 69.1191 102.799C68.5083 103.003 68.027 102.996 67.382 102.998C67.2575 102.998 67.133 102.999 67.0047 102.999C66.5863 103.001 66.168 103.001 65.7497 103.001C65.4501 103.002 65.1506 103.003 64.8511 103.004C64.0366 103.006 63.2221 103.007 62.4075 103.008C61.8987 103.009 61.39 103.009 60.8812 103.01C59.2896 103.013 57.6981 103.014 56.1065 103.015C54.2687 103.016 52.431 103.019 50.5932 103.024C49.173 103.028 47.7528 103.029 46.3327 103.03C45.4843 103.03 44.6359 103.031 43.7876 103.034C42.9894 103.037 42.1914 103.037 41.3933 103.036C41.1005 103.036 40.8077 103.036 40.5149 103.038C40.1149 103.04 39.715 103.039 39.3149 103.037C39.0912 103.038 38.8674 103.038 38.6368 103.038C37.7394 102.942 37.1817 102.663 36.5783 101.995C36.2174 101.244 36.1513 100.661 36.2961 99.8418C36.5869 99.2484 36.7837 98.9058 37.3727 98.5989C37.9668 98.417 38.4743 98.4062 39.0959 98.4058Z" fill="white"/>
<path d="M39.362 91.9698C39.4736 91.9694 39.5853 91.969 39.7004 91.9686C40.0723 91.9676 40.4441 91.9691 40.816 91.9706C41.0837 91.9704 41.3514 91.9701 41.6191 91.9696C42.3451 91.9688 43.0711 91.9701 43.7971 91.9718C44.5595 91.9734 45.3219 91.9731 46.0843 91.973C47.3664 91.9732 48.6485 91.9747 49.9306 91.9771C51.4065 91.9798 52.8825 91.9807 54.3584 91.9806C55.9359 91.9805 57.5134 91.9817 59.0909 91.9833C59.5421 91.9836 59.9932 91.9838 60.4443 91.9838C61.1585 91.984 61.8726 91.9851 62.5868 91.9868C62.8466 91.9873 63.1064 91.9875 63.3663 91.9874C64.1845 91.9872 65.002 91.9959 65.8201 92.0129C65.9438 92.0152 66.0676 92.0175 66.1951 92.0199C66.5707 92.0287 66.9459 92.0425 67.3214 92.0579C67.5416 92.0658 67.7618 92.0736 67.9887 92.0817C68.8526 92.2306 69.4087 92.6038 69.9663 93.2742C70.2286 93.9165 70.2643 94.4599 70.1617 95.1445C69.8752 95.7903 69.5426 96.1628 68.9461 96.5363C68.4501 96.7019 68.1443 96.7321 67.6301 96.7324C67.4666 96.7329 67.3031 96.7334 67.1347 96.7339C66.9554 96.7335 66.776 96.7332 66.5912 96.7328C66.4018 96.7331 66.2124 96.7334 66.0173 96.7337C65.3846 96.7345 64.752 96.734 64.1193 96.7334C63.6723 96.7335 63.2252 96.7337 62.7781 96.7339C61.8327 96.7342 60.8873 96.7338 59.942 96.733C58.9928 96.7321 58.0436 96.7321 57.0944 96.733C54.0982 96.7355 51.1021 96.7307 48.1059 96.7141C47.6384 96.7115 47.1709 96.7091 46.7034 96.7069C45.3245 96.7001 43.9458 96.6891 42.567 96.6725C42.1402 96.6678 41.7134 96.6643 41.2866 96.662C40.6995 96.6584 40.1126 96.6506 39.5256 96.6416C39.3535 96.6414 39.1813 96.6413 39.004 96.6411C37.9933 96.6198 37.4182 96.5076 36.644 95.8404C36.1385 95.1093 36.1662 94.2592 36.2967 93.4047C36.5946 92.7771 36.9991 92.4294 37.6451 92.1623C38.2424 92.0034 38.7445 91.9696 39.362 91.9698Z" fill="white"/>
<path d="M46.5551 104.533C46.8 104.535 46.8 104.535 47.0497 104.537C47.5827 104.542 48.1157 104.548 48.6486 104.554C49.0229 104.558 49.3972 104.562 49.7715 104.566C50.5533 104.573 51.3351 104.582 52.1169 104.591C53.1148 104.603 54.1126 104.613 55.1105 104.622C55.8826 104.63 56.6547 104.638 57.4268 104.646C57.7945 104.65 58.1623 104.654 58.5301 104.657C59.0457 104.663 59.5612 104.669 60.0767 104.675C60.226 104.676 60.3753 104.677 60.5291 104.679C63.8219 104.724 63.8219 104.724 64.7779 105.583C65.1837 106.101 65.1825 106.66 65.2223 107.306C65.0609 107.913 64.744 108.155 64.2569 108.541C63.7374 108.745 63.2033 108.868 62.6614 108.998C60.8953 109.471 59.52 110.284 58.0026 111.28C56.5536 112.199 55.0405 112.935 53.3051 112.967C52.9958 112.977 52.9958 112.977 52.6803 112.988C50.7716 112.851 49.0832 111.71 47.5198 110.705C46.1059 109.821 44.8735 109.16 43.2412 108.835C42.4705 108.657 41.9589 108.322 41.3329 107.845C41.0629 107.304 41.1095 106.877 41.1593 106.279C41.5852 105.426 41.9968 105.025 42.8959 104.713C44.1122 104.543 45.3293 104.517 46.5551 104.533Z" fill="white"/>
<path d="M12.0729 47.2479C12.2148 47.2472 12.3568 47.2464 12.503 47.2456C12.8027 47.2447 13.1024 47.2446 13.402 47.2453C13.8571 47.2459 14.312 47.2418 14.7671 47.2374C15.0594 47.237 15.3516 47.2369 15.6439 47.237C15.7784 47.2354 15.9128 47.2338 16.0513 47.2322C17.2176 47.242 18.1443 47.5024 19.103 48.2028C19.4798 48.7336 19.5667 49.085 19.5249 49.7366C19.3508 50.547 18.9031 51.0293 18.2347 51.4757C17.4736 51.692 16.7037 51.6778 15.9186 51.6789C15.7801 51.6795 15.6416 51.6801 15.4989 51.6807C15.2067 51.6816 14.9145 51.682 14.6222 51.6819C14.1779 51.6823 13.7336 51.6855 13.2892 51.6888C13.0043 51.6893 12.7194 51.6896 12.4345 51.6898C12.2371 51.6917 12.2371 51.6917 12.0358 51.6936C11.0915 51.6896 10.1616 51.6262 9.37833 51.0442C8.93004 50.5123 8.70094 50.1678 8.55273 49.475C8.72521 48.6687 9.09141 48.17 9.72498 47.6482C10.4909 47.2521 11.2296 47.2469 12.0729 47.2479Z" fill="white"/>
<path d="M97.2421 50.595C97.7329 51.0867 97.937 51.3614 98.0019 52.0629C97.9425 52.7522 97.8672 53.0366 97.4266 53.5635C96.4444 54.2527 95.7167 54.3611 94.5333 54.3457C94.3756 54.3459 94.2179 54.3462 94.0554 54.3465C93.7236 54.3462 93.3919 54.3442 93.0601 54.3406C92.554 54.3355 92.0481 54.337 91.5419 54.3392C91.2185 54.3382 90.895 54.3367 90.5715 54.3348C90.346 54.3356 90.346 54.3356 90.1159 54.3364C89.0984 54.3206 88.3667 54.1451 87.5601 53.4765C87.0813 52.8705 87.1295 52.2125 87.1802 51.4757C87.4976 50.7395 87.8642 50.4419 88.5696 50.0839C89.0496 50.0087 89.0496 50.0087 89.5688 49.9949C89.8561 49.9856 89.8561 49.9856 90.1492 49.9762C90.3479 49.9722 90.5466 49.9683 90.7513 49.9643C90.9453 49.9583 91.1392 49.9524 91.3391 49.9463C96.0571 49.812 96.0571 49.812 97.2421 50.595Z" fill="white"/>
<path d="M22.7508 14.2444C23.6684 14.6114 24.2641 15.1619 24.946 15.8523C25.0516 15.9576 25.1573 16.063 25.2661 16.1715C25.488 16.3934 25.7092 16.616 25.9298 16.8392C26.2671 17.1798 26.607 17.5175 26.9473 17.8551C27.1631 18.0717 27.3789 18.2885 27.5944 18.5055C27.6957 18.6059 27.797 18.7063 27.9014 18.8098C28.4202 19.3387 28.8098 19.7716 29.0028 20.5076C28.9901 21.3089 28.9311 21.8497 28.4492 22.4975C27.8887 23.0091 27.6719 23.1321 26.9188 23.1173C25.8724 22.7985 25.2293 22.4233 24.4745 21.6419C24.336 21.5031 24.336 21.5031 24.1947 21.3615C24.0012 21.1668 23.8088 20.971 23.6174 20.7741C23.3273 20.4763 23.0338 20.1824 22.7396 19.8888C20.5269 17.6597 20.5269 17.6597 20.2041 16.4062C20.2179 15.6608 20.2524 15.3731 20.7319 14.7663C21.4476 14.22 21.8468 14.184 22.7508 14.2444Z" fill="white"/>
<path d="M85.7914 16.5061C86.2811 16.8229 86.5735 17.0292 86.8334 17.5499C86.9658 18.6307 86.7834 19.2099 86.1448 20.0855C85.0502 21.3925 83.7861 22.5353 82.4917 23.6392C82.1245 23.9645 81.7578 24.2903 81.3913 24.6165C80.811 25.0996 80.3157 25.0879 79.5848 25.082C79.0089 25.0073 78.7145 24.751 78.3237 24.3351C77.9948 23.6761 78.0464 22.9637 78.15 22.2474C78.6738 21.0493 79.8834 20.1917 80.8358 19.3332C81.5784 18.6587 82.2781 17.9426 82.9734 17.2195C83.8834 16.2874 84.5607 16.2205 85.7914 16.5061Z" fill="white"/>
<path d="M54.3577 1.89175C55.3077 2.4774 55.6317 3.09309 55.9207 4.15348C55.9848 4.62877 55.9901 5.09342 55.9838 5.57249C55.9839 5.70238 55.984 5.83227 55.9841 5.96609C55.9837 6.23861 55.982 6.51113 55.9791 6.78363C55.975 7.19709 55.9756 7.61035 55.9767 8.02383C55.9757 8.29046 55.9745 8.55709 55.973 8.82372C55.9732 9.00619 55.9732 9.00619 55.9735 9.19234C55.9586 10.243 55.8281 11.2299 55.2586 12.1348C54.6972 12.6812 54.2897 12.8403 53.5111 12.8742C52.6835 12.5757 52.2177 12.0254 51.7527 11.2866C51.5914 10.6773 51.5936 10.1024 51.6096 9.47478C51.6097 9.30545 51.6098 9.13613 51.6098 8.96167C51.6113 8.60576 51.6157 8.24986 51.6229 7.89402C51.6333 7.35059 51.6336 6.80785 51.6323 6.26433C51.635 5.91727 51.6383 5.57022 51.6422 5.22318C51.6424 5.06168 51.6426 4.90018 51.6429 4.73379C51.6732 3.54202 51.9285 2.95141 52.7622 2.08748C53.3356 1.79204 53.7219 1.80389 54.3577 1.89175Z" fill="white"/>
<path d="M25.5294 72.3534C26.119 72.6543 26.4707 72.8871 26.821 73.4516C26.9825 74.2248 26.9446 74.8061 26.5286 75.4958C25.5761 76.7774 24.4005 77.9932 23.153 78.9883C22.7178 79.3159 22.7178 79.3159 22.3274 79.8344C21.8023 80.4502 21.322 80.9678 20.4957 81.1128C19.7107 81.1468 19.202 81.0048 18.5827 80.5304C18.1177 80.0645 18.0781 79.7114 18.0332 79.0659C18.1311 77.5229 19.8655 76.2072 20.9058 75.1774C21.189 74.8965 21.4693 74.6129 21.7494 74.329C21.931 74.1473 22.1128 73.9659 22.2948 73.7846C22.4186 73.659 22.4186 73.659 22.5449 73.5309C23.4377 72.6549 24.2652 72.1951 25.5294 72.3534Z" fill="white"/>
<path d="M79.1916 74.2671C80.7245 75.0596 81.8943 76.6714 83.0417 77.9298C83.3601 78.2691 83.69 78.5923 84.0244 78.9156C84.6652 79.553 84.9999 80.1413 85.0963 81.0523C84.9813 81.6487 84.6932 82.0929 84.3582 82.5963C83.8445 82.9271 83.4466 82.956 82.8386 82.966C81.8117 82.609 81.0579 81.9818 80.3062 81.2174C80.2053 81.117 80.1044 81.0166 80.0005 80.9132C79.7894 80.7022 79.5791 80.4903 79.3697 80.2776C79.0507 79.9542 78.7281 79.6348 78.405 79.3155C78.1991 79.1088 77.9934 78.9019 77.788 78.6947C77.6925 78.6004 77.597 78.5061 77.4986 78.409C76.7264 77.6165 76.2393 76.8707 76.2393 75.7242C76.4465 75.0233 76.7248 74.7294 77.2813 74.2671C77.9083 73.953 78.5313 74.0905 79.1916 74.2671Z" fill="white"/>
</svg>
