<svg width="276" height="268" viewBox="0 0 276 268" fill="none" xmlns="http://www.w3.org/2000/svg">
<path opacity="0.0526316" d="M22.2187 216.679C28.0093 224.382 46.5168 237.274 74.2217 227.209C108.853 214.628 122.247 181.278 153.155 163.985C175.968 151.222 237.268 132.064 272.516 153.234" stroke="#0B446D" stroke-width="3"/>
<path opacity="0.105263" d="M16.5076 200.529C21.4612 208.796 38.5198 223.551 67.125 216.437C102.881 207.545 119.688 175.778 152.235 161.811C176.257 151.502 239.223 138.857 272.065 163.595" stroke="#0B446D" stroke-width="3"/>
<path opacity="0.157895" d="M12.1929 184.162C16.2553 192.901 31.678 209.359 60.8701 205.274C97.3603 200.168 117.395 170.332 151.224 159.843C176.192 152.102 240.135 146.108 270.211 174.144" stroke="#0B446D" stroke-width="3"/>
<path opacity="0.210526" d="M9.29004 167.722C12.4166 176.838 26.0345 194.818 55.4937 193.807C92.3177 192.543 115.362 164.964 150.101 158.069C175.742 152.981 239.961 153.703 266.942 184.729" stroke="#0B446D" stroke-width="3"/>
<path opacity="0.263158" d="M7.79729 151.36C9.95382 160.753 21.6177 180.058 51.0213 182.131C87.7757 184.723 113.576 159.704 148.846 156.479C174.878 154.098 238.67 161.529 262.26 195.205" stroke="#0B446D" stroke-width="3"/>
<path opacity="0.315789" d="M7.70041 135.223C8.86327 144.79 18.4454 165.208 47.4711 170.344C83.7532 176.764 112.028 154.579 147.441 155.057C173.58 155.411 236.245 169.469 256.186 205.427" stroke="#0B446D" stroke-width="3"/>
<path opacity="0.368421" d="M8.9698 119.455C9.12625 129.091 16.5216 150.399 44.8514 158.541C80.2638 168.718 110.702 149.61 145.872 153.788C171.83 156.871 232.683 177.403 248.756 215.248" stroke="#0B446D" stroke-width="3"/>
<path opacity="0.421053" d="M11.557 104.195C10.7053 113.795 15.8329 135.759 43.1565 146.817C77.311 160.64 109.58 144.818 144.12 152.65C169.614 158.43 227.988 185.21 240.017 224.528" stroke="#0B446D" stroke-width="3"/>
<path opacity="0.473684" d="M15.4008 89.5807C13.5503 99.0389 16.3539 121.419 42.3719 135.273C74.8944 152.59 108.64 140.228 142.173 151.627C166.923 160.04 222.177 192.775 230.031 233.135" stroke="#0B446D" stroke-width="3"/>
<path opacity="0.526316" d="M20.4296 75.7395C17.6006 84.9525 18.0495 107.503 42.4769 124C73.0111 144.622 107.864 135.856 140.022 150.697C163.757 161.651 215.287 199.983 218.878 240.942" stroke="#0B446D" stroke-width="3"/>
<path opacity="0.578947" d="M26.5548 62.7906C22.7783 71.6574 20.8676 94.1311 43.4367 113.092C71.648 136.792 107.227 131.717 137.657 149.838C160.116 163.214 207.357 206.721 206.648 247.832" stroke="#0B446D" stroke-width="3"/>
<path opacity="0.631579" d="M33.6779 50.8422C28.9953 59.2657 24.7459 81.4166 45.2094 102.632C70.7888 129.152 106.703 127.823 135.072 149.026C156.011 164.676 198.445 212.883 193.442 253.695" stroke="#0B446D" stroke-width="3"/>
<path opacity="0.684211" d="M41.686 39.9947C36.1485 47.8826 29.607 69.468 47.7408 92.7066C70.408 121.755 106.265 124.187 132.262 148.24C151.45 165.992 188.613 218.371 179.371 258.436" stroke="#0B446D" stroke-width="3"/>
<path opacity="0.736842" d="M50.4635 30.3363C44.1318 37.6021 35.3698 58.3855 50.9752 83.3923C70.4818 114.651 105.888 120.818 129.228 147.456C146.456 167.117 177.94 223.094 164.561 261.973" stroke="#0B446D" stroke-width="3"/>
<path opacity="0.789474" d="M59.8788 21.9367C52.8223 28.5009 41.9359 48.2545 54.8418 74.7555C70.9742 107.882 105.541 117.716 125.97 146.648C141.048 168.002 166.508 226.963 149.139 264.231" stroke="#0B446D" stroke-width="3"/>
<path opacity="0.842105" d="M69.7983 14.8574C62.0943 20.648 49.2027 39.1555 59.2678 66.8603C71.8492 101.491 105.199 114.885 122.491 145.794C135.255 168.607 154.413 229.906 133.243 265.154" stroke="#0B446D" stroke-width="3"/>
<path opacity="0.894737" d="M80.0793 9.14725C71.8123 14.1009 57.0567 31.1594 64.1707 59.7646C73.0633 95.5211 104.83 112.328 118.797 144.875C129.106 168.897 141.751 231.863 117.013 264.705" stroke="#0B446D" stroke-width="3"/>
<path opacity="0.947368" d="M90.5793 4.83137C81.8398 8.89372 65.382 24.3164 69.467 53.5086C74.5732 89.9987 104.41 110.034 114.898 143.862C122.639 168.83 128.633 232.773 100.598 262.85" stroke="#0B446D" stroke-width="3"/>
<path d="M101.149 1.92871C92.0329 5.05528 74.0531 18.6732 75.0644 48.1324C76.3284 84.9564 103.907 108 110.802 142.74C115.891 168.38 115.168 232.6 84.1424 259.581" stroke="#0B446D" stroke-width="3"/>
</svg>
