<svg width="312" height="445" viewBox="0 0 312 445" fill="none" xmlns="http://www.w3.org/2000/svg">
<path d="M92.1987 85.2047C96.9831 89.7774 98.8526 96.3531 99.1521 102.806C99.2106 105.831 99.1895 108.856 99.1621 111.881C99.1552 112.991 99.1484 114.1 99.1416 115.21C99.1214 118.012 99.0893 120.815 99.0542 123.617C99.0372 125.138 99.0265 126.66 99.0186 128.181C98.9136 145.748 96.1477 158.928 84.2705 172.345C83.8664 172.806 83.4624 173.267 83.0461 173.741C73.0539 184.436 59.0112 190.117 44.5665 191.135C32.8222 191.507 20.7356 191.614 9.37456 188.224C7.66116 187.806 6.15761 187.76 4.40108 187.829C4.62256 188.94 4.84405 190.051 5.07225 191.195C13.9848 194.707 23.5883 194.786 33.0422 194.737C34.6911 194.73 36.3396 194.737 37.9885 194.745C46.4464 194.754 54.7368 194.258 62.793 191.448C63.2992 191.273 63.8054 191.099 64.3269 190.92C78.5647 185.798 87.8834 176.297 95.6804 163.593C96.3449 162.593 96.3449 162.593 97.0227 161.573C97.4657 161.573 97.9087 161.573 98.3651 161.573C98.4844 173.963 98.5956 186.352 98.6972 198.742C98.7445 204.495 98.7945 210.248 98.8508 216.002C98.8998 221.02 98.9439 226.039 98.982 231.057C99.0023 233.711 99.0251 236.365 99.0539 239.019C99.081 241.524 99.1013 244.029 99.1167 246.535C99.1266 247.877 99.1435 249.22 99.1607 250.562C99.2079 260.789 98.2607 271.767 91.6534 280.061C89.8073 281.896 87.9473 283.602 85.6128 284.773C86.0014 290.637 87.2319 296.215 88.5151 301.932C90.5452 310.991 92.3905 320.004 93.6669 329.206C98.5396 329.428 103.412 329.65 108.433 329.879C108.514 328.729 108.595 327.579 108.679 326.395C109.059 321.855 109.733 317.405 110.53 312.922C110.673 312.117 110.815 311.311 110.962 310.481C112.491 302.208 114.717 294.163 117.158 286.12C116.796 285.905 116.433 285.691 116.06 285.47C109.547 281.524 106.71 276.374 104.639 269.097C102.998 262.284 102.965 255.381 102.976 248.409C102.976 247.477 102.974 246.545 102.973 245.613C102.97 243.103 102.971 240.593 102.973 238.082C102.975 235.448 102.973 232.814 102.972 230.18C102.971 225.763 102.973 221.346 102.976 216.928C102.979 211.823 102.978 206.718 102.975 201.612C102.972 197.22 102.971 192.829 102.973 188.437C102.974 185.818 102.974 183.198 102.972 180.578C102.97 178.119 102.971 175.66 102.975 173.201C102.976 171.869 102.974 170.537 102.972 169.204C102.974 168.411 102.976 167.619 102.978 166.802C102.978 165.769 102.978 165.769 102.979 164.715C103.054 163.11 103.276 161.76 103.734 160.227C104.177 160.227 104.62 160.227 105.077 160.227C106.229 161.947 107.317 163.676 108.391 165.444C111.743 170.798 115.361 175.303 119.843 179.75C120.562 180.494 120.562 180.494 121.295 181.252C131.59 191.25 145.735 194.191 159.442 195.908C159.442 194.797 159.442 193.686 159.442 192.542C156.711 191.295 154.146 190.827 151.178 190.438C150.336 190.325 149.494 190.212 148.627 190.096C147.988 190.014 147.348 189.933 146.689 189.849C148.341 187.66 149.911 185.924 152.143 184.337C153.584 183.303 154.83 182.357 156.086 181.097C157.763 180.987 157.763 180.987 159.874 181.06C160.643 181.079 161.413 181.097 162.205 181.116C163.023 181.138 163.842 181.159 164.685 181.181C176.387 181.317 184.549 179.049 193.462 171.041C198.342 165.926 201.319 158.938 203.068 152.148C206.095 152.929 207.31 154.375 209.032 156.829C211.716 161.779 211.914 167.719 210.818 173.189C210.484 174.258 210.133 175.322 209.78 176.384C209.515 179.559 210.026 181.297 211.667 184C215.307 190.405 217.121 196.354 215.403 203.765C212.795 211.253 207.134 215.774 200.383 219.471C199.951 219.714 199.518 219.958 199.072 220.209C194.104 222.539 187.819 222.256 182.639 220.875C177.645 219.008 172.883 216.565 168.167 214.085C167.737 214.499 167.307 214.913 166.864 215.339C161.214 220.635 156.591 223.084 148.774 223.036C144.177 222.596 138.748 221.547 134.608 219.471C134.462 221.412 134.462 221.412 135.28 223.51C137.15 224.813 139.164 225.503 141.32 226.203C141.81 226.363 142.299 226.524 142.804 226.689C150.537 228.803 158.012 226.473 164.892 222.737C166.385 221.782 167.366 221.077 168.167 219.471C171.507 220.127 174.451 221.798 177.5 223.257C184.238 226.261 194.569 226.114 201.432 223.636C203.116 222.893 204.591 222.049 206.148 221.062C207.766 220.144 207.766 220.144 209.78 220.144C209.997 226.919 209.387 233.459 205.081 238.994C203.629 239.835 203.629 239.835 202.397 240.34C201.215 237.216 200.071 234.094 199.041 230.915C197.712 230.915 196.383 230.915 195.014 230.915C195.22 231.536 195.22 231.536 195.431 232.17C198.386 241.063 198.37 247.145 194.343 255.825C194.051 256.472 193.759 257.119 193.459 257.786C189.982 264.841 184.188 270.892 176.892 274.002C174.816 274.463 172.99 274.606 170.852 274.675C171.058 273.882 171.058 273.882 171.268 273.073C174.39 260.865 174.713 249.475 168.576 238.079C165.98 233.56 165.98 233.56 161.668 231.134C161.155 231.062 160.641 230.989 160.113 230.915C160.096 231.403 160.078 231.891 160.06 232.393C159.823 236.447 159.524 239.199 156.757 242.36C155.648 243.27 154.532 244.171 153.401 245.053C153.401 245.497 153.401 245.942 153.401 246.399C155.975 246.252 156.718 245.766 158.561 243.875C159.885 242.008 160.758 240.483 161.455 238.321C164.318 239.346 165.362 241.104 166.825 243.707C170.328 252.398 170.652 261.779 167.496 270.635C163.597 279.345 158.071 285.29 149.185 289.078C144.489 290.665 140.216 291.189 135.28 290.832C135.208 291.679 135.136 292.526 135.062 293.399C134.647 297.139 133.696 300.671 132.721 304.297C130.522 312.74 129.128 321.247 127.897 329.879C128.263 329.874 128.63 329.87 129.007 329.865C132.84 329.821 136.673 329.79 140.506 329.768C141.934 329.758 143.362 329.744 144.79 329.727C146.85 329.702 148.909 329.691 150.968 329.682C151.601 329.671 152.234 329.661 152.886 329.65C157.25 329.649 161.289 330.065 164.769 332.993C166.248 336.31 166.683 339.812 165.398 343.259C163.852 345.844 162.469 346.819 159.654 347.761C157.436 348.182 155.237 348.149 152.989 348.143C152.473 348.144 151.956 348.145 151.424 348.147C149.696 348.15 147.969 348.148 146.241 348.145C145.008 348.146 143.775 348.147 142.542 348.148C139.207 348.15 135.871 348.148 132.536 348.143C130.46 348.14 128.383 348.138 126.307 348.136C116.322 348.126 106.337 348.098 96.3516 348.056C95.3215 348.052 95.3215 348.052 94.2706 348.047C85.8912 348.011 77.512 347.958 69.1328 347.878C66.7566 347.855 64.3805 347.837 62.0043 347.823C59.2182 347.806 56.4323 347.779 53.6464 347.744C52.6313 347.733 51.6161 347.725 50.6009 347.721C49.2185 347.715 47.8367 347.696 46.4545 347.674C45.6839 347.666 44.9133 347.659 44.1193 347.651C40.7392 347.226 38.5941 346.12 36.4076 343.512C35.123 341.03 34.6038 339.413 34.6038 336.611C35.5002 333.903 36.5674 332.338 39.0184 330.845C41.6804 329.725 44.0183 329.547 46.8579 329.511C47.3843 329.497 47.9107 329.483 48.4531 329.469C49.5642 329.442 50.6755 329.42 51.7868 329.402C53.4617 329.374 55.1357 329.332 56.8101 329.287C62.6515 329.15 68.3874 329.202 74.2029 329.879C71.6726 312.544 71.6726 312.544 67.4125 295.587C66.82 293.525 66.82 293.525 66.82 290.832C65.7403 290.895 65.7403 290.895 64.6387 290.958C54.8584 290.924 46.1175 286.15 39.302 279.387C33.4366 271.95 31.3119 263.851 31.9191 254.478C33.3322 245.169 37.5879 236.797 45.007 230.936C53.3079 225.224 62.3208 223.743 72.1894 224.856C74.625 225.34 76.9294 226.093 79.2577 226.96C80.9379 227.662 80.9379 227.662 82.9281 227.549C82.8249 225.907 82.8249 225.907 82.257 224.183C75.4878 219.643 64.8861 219.084 57.1798 220.583C47.3682 223.329 38.6115 229.135 32.9731 237.724C27.7898 247.281 27.106 257.079 29.4415 267.543C29.8689 269.771 29.9925 271.741 29.9056 274.002C21.3282 272.614 15.2372 267.845 9.77045 261.21C8.31184 258.826 7.30411 256.451 6.41459 253.805C6.20262 253.202 5.99065 252.599 5.77226 251.977C3.91293 246.041 3.51326 240.153 5.74342 234.281C5.85617 232.093 5.85617 232.093 5.74342 230.242C3.41522 230.873 2.55013 231.338 1.21301 233.398C0.333999 235.734 -0.049963 237.861 -0.297123 240.34C-3.5812 238.96 -4.74485 236.685 -6.33767 233.608C-8.02637 229.414 -7.81115 225.267 -7.68001 220.817C-5.0041 221.099 -2.76168 221.806 -0.297123 222.837C7.2278 225.937 14.8719 225.365 22.5227 222.837C25.0694 221.721 27.5644 220.502 30.0237 219.205C33.499 217.426 33.499 217.426 35.8806 217.564C37.4396 218.184 38.132 218.97 39.302 220.144C40.1879 220.144 41.0739 220.144 41.9867 220.144C41.4883 219.658 40.99 219.172 40.4765 218.671C39.8675 218.046 39.2584 217.421 38.6308 216.778C38.1602 216.319 37.6895 215.861 37.2046 215.389C35.2441 212.308 34.6771 208.88 33.9326 205.333C33.0705 207.062 33.0401 208.541 32.8839 210.466C32.8277 211.141 32.7714 211.816 32.7135 212.512C32.6728 213.031 32.6322 213.55 32.5903 214.085C30.2981 214.971 28.0046 215.854 25.7108 216.736C25.061 216.987 24.4113 217.238 23.7418 217.497C23.1146 217.738 22.4873 217.979 21.841 218.227C20.9764 218.56 20.9764 218.56 20.0943 218.9C13.9789 221.083 5.19302 221.581 -0.758554 218.797C-7.16193 214.787 -11.1167 209.188 -13.4793 202.006C-14.5152 196.054 -14.2541 190.309 -11.0359 185.136C-10.282 184.111 -9.5269 183.088 -8.77066 182.065C-7.05551 179.576 -7.05551 179.576 -7.42832 176.468C-7.58492 176.029 -7.74152 175.59 -7.90286 175.138C-9.72118 169.271 -8.14648 161.969 -5.55114 156.572C-4.14415 154.193 -2.76399 152.167 -0.297123 150.802C0.14585 150.802 0.588823 150.802 1.04522 150.802C1.36361 151.579 1.68199 152.357 2.01003 153.158C5.14342 159.367 10.846 162.604 17.1533 164.939C17.6006 165.105 18.0479 165.271 18.5088 165.442C24.2527 167.201 30.3719 166.492 36.1559 165.36C40.175 164.719 40.175 164.719 42.1702 165.655C43.0294 166.358 43.864 167.093 44.6714 167.856C49.1575 171.609 55.8225 172.456 61.4507 172.345C61.3116 171.018 61.3116 171.018 60.7795 169.652C59.6558 168.976 59.6558 168.976 58.2364 168.647C57.7147 168.492 57.193 168.337 56.6554 168.177C55.5615 167.874 54.4674 167.573 53.373 167.272C48.5434 165.832 45.0285 163.528 42.4062 159.133C40.7983 155.783 40.5089 153.144 40.4346 149.413C40.397 148.173 40.397 148.173 40.3586 146.907C40.6443 144.743 40.6443 144.743 41.8451 143.507C43.1529 142.816 44.4231 142.197 45.804 141.671C48.076 140.966 48.076 140.966 48.6984 139.357C47.937 139.579 47.1757 139.801 46.3912 140.03C43.3494 140.775 40.404 141.207 37.2885 140.703C35.0233 139.315 35.0233 139.315 33.2615 138.011C32.2648 138.344 32.2648 138.344 31.2479 138.684C33.5818 141.229 33.5818 141.229 36.6173 142.723C36.5533 143.236 36.4893 143.749 36.4233 144.277C35.9368 148.822 36.0405 152.479 37.2885 156.861C37.5166 157.982 37.7429 159.104 37.9597 160.227C33.8091 163.002 27.0964 162.544 22.2291 161.978C16.1543 160.63 10.4521 157.81 6.57976 152.803C2.87443 146.919 1.65942 140.719 3.10068 133.929C4.88244 127.658 8.17657 123.129 13.7975 119.834C14.9596 119.292 16.1221 118.751 17.2892 118.22C21.6517 116.214 24.2629 114.285 26.8067 110.109C30.6991 103.941 36.4638 100.13 43.3054 97.8513C45.1718 97.5315 46.9744 97.5545 48.8662 97.5752C49.9511 97.5843 49.9511 97.5843 51.058 97.5936C51.6082 97.6014 52.1585 97.6092 52.7254 97.6172C52.7631 98.5206 52.7631 98.5206 52.8015 99.4423C53.2784 108.241 54.6879 114.54 60.7795 121.18C66.069 125.831 72.1931 127.226 78.9011 128.585C79.5656 130.918 79.5656 130.918 80.2435 133.298C81.1294 133.52 82.0153 133.742 82.9281 133.971C82.7828 133.596 82.6374 133.221 82.4877 132.835C80.835 128.292 79.9748 124.464 81.9214 119.834C82.4197 118.834 82.4197 118.834 82.9281 117.814C80.719 118.578 80.2461 119.156 79.0689 121.264C78.6536 122.222 78.6536 122.222 78.2299 123.2C73.0193 123.654 68.4044 121.927 64.2612 118.74C60.4184 115.168 58.3049 109.979 57.9349 104.807C57.8052 98.1414 58.276 92.7001 62.9608 87.6031C70.5499 80.7488 83.7519 78.6887 92.1987 85.2047Z" fill="#EFF4FE"/>
<path d="M134.739 84.9733C139.46 88.2139 142.515 92.7703 144.004 98.2905C144.723 105.909 143.933 111.333 139.18 117.309C134.874 121.922 130.008 123.685 123.869 124.546C123.686 123.986 123.686 123.986 123.5 123.415C123.331 122.928 123.162 122.44 122.988 121.937C122.825 121.453 122.661 120.969 122.493 120.47C121.88 118.931 121.88 118.931 119.842 117.814C120.182 119.274 120.513 120.507 121.185 121.853C121.157 126.496 120.65 130.519 118.5 134.644C119.386 134.644 120.272 134.644 121.185 134.644C121.351 134.02 121.517 133.395 121.688 132.751C122.624 130.358 123.072 129.884 125.212 128.585C126.708 128.116 128.22 127.7 129.742 127.323C133.737 126.246 136.597 124.874 139.977 122.526C140.42 122.526 140.863 122.526 141.32 122.526C141.5 122.143 141.68 121.759 141.865 121.364C142.969 119.244 144.35 117.351 145.724 115.4C147.882 111.765 148.255 108.303 148.409 104.181C148.621 99.1271 148.621 99.1271 149.374 97.6172C159.09 98.278 167.762 101.498 174.543 108.683C176.231 110.669 177.152 112.228 177.815 114.742C178.175 115.534 178.535 116.325 178.905 117.141C180.572 117.764 182.141 117.989 183.902 118.222C188.578 118.946 191.49 122.037 194.434 125.506C199.678 132.773 200.627 140.771 199.426 149.516C197.752 157.191 194.187 165.669 187.631 170.325C180.719 174.523 171.766 179.341 163.482 177.423C162.349 177.108 161.229 176.75 160.113 176.384C160.161 175.951 160.209 175.518 160.259 175.072C160.706 170.706 160.756 166.527 160.48 162.144C160.784 160.227 160.784 160.227 162.388 158.625C164.14 157.534 164.14 157.534 165.482 157.534C165.703 156.423 165.925 155.312 166.153 154.168C164.197 154.891 162.946 155.365 161.455 156.861C159.533 157.016 159.533 157.016 157.218 156.987C156.08 156.981 156.08 156.981 154.919 156.974C152.992 156.874 151.248 156.628 149.374 156.188C149.815 158.284 149.815 158.284 151.408 158.946C151.955 159.161 152.502 159.375 153.065 159.596C156.017 160.762 156.017 160.762 156.757 162.247C157.473 167.974 156.268 172.753 153.401 177.731C152.018 179.456 150.571 180.604 148.703 181.77C148.197 182.095 147.69 182.421 147.169 182.756C143.049 185.12 139.317 186.062 134.608 185.136C132.082 184.139 130.056 182.735 127.896 181.097C126.845 180.3 126.845 180.3 125.773 179.487C114.244 170.389 104.949 156.14 103.118 141.346C103.039 140.615 103.039 140.615 102.958 139.87C102.901 139.347 102.844 138.824 102.786 138.286C102.199 132.262 102.4 126.291 102.644 120.254C102.702 118.599 102.758 116.943 102.814 115.287C102.85 114.224 102.888 113.162 102.926 112.099C103.054 108.491 103.087 104.894 103.029 101.284C103.153 95.3227 105.215 91.2286 109.481 87.0981C116.771 80.9798 126.5 80.3853 134.739 84.9733Z" fill="#EFF4FE"/>
<path d="M46.0953 378.853C46.8058 378.85 46.8058 378.85 47.5307 378.847C49.114 378.842 50.6971 378.846 52.2804 378.85C53.4173 378.848 54.5541 378.846 55.6909 378.843C58.7764 378.837 61.8618 378.839 64.9473 378.843C68.1779 378.847 71.4085 378.844 74.6391 378.841C80.0657 378.839 85.4924 378.842 90.919 378.849C97.1887 378.856 103.458 378.854 109.728 378.846C115.113 378.84 120.499 378.839 125.884 378.843C129.1 378.845 132.315 378.845 135.53 378.841C138.555 378.837 141.579 378.84 144.603 378.847C145.712 378.849 146.82 378.849 147.929 378.846C149.445 378.842 150.961 378.847 152.477 378.853C153.325 378.854 154.173 378.854 155.046 378.855C158.704 379.115 161.32 379.632 164.056 382.138C165.854 385.003 166.153 386.417 166.153 389.796C165.23 392.251 164.194 394.213 162.126 395.855C159.766 396.644 157.905 396.617 155.413 396.623C154.932 396.625 154.451 396.627 153.955 396.629C152.338 396.634 150.721 396.635 149.104 396.636C147.947 396.64 146.789 396.643 145.632 396.647C142.484 396.655 139.336 396.66 136.188 396.663C134.222 396.665 132.255 396.667 130.289 396.671C124.138 396.68 117.987 396.686 111.836 396.689C104.734 396.692 97.6314 396.704 90.5289 396.723C85.0404 396.738 79.5518 396.744 74.0633 396.745C70.7845 396.746 67.5059 396.75 64.2271 396.762C61.1427 396.773 58.0583 396.775 54.9739 396.769C53.8424 396.768 52.7109 396.771 51.5794 396.778C50.0333 396.786 48.4877 396.782 46.9417 396.775C46.0769 396.776 45.2121 396.777 44.3211 396.778C40.8529 396.406 38.6974 395.326 36.3654 392.741C34.9706 389.835 34.7152 387.579 35.2747 384.41C36.3985 382.114 37.1593 380.788 39.4356 379.6C41.7316 378.897 43.693 378.855 46.0953 378.853Z" fill="#EFF4FE"/>
<path d="M47.1213 353.949C47.5529 353.947 47.9846 353.945 48.4293 353.944C49.8666 353.94 51.3036 353.946 52.7409 353.951C53.7754 353.951 54.81 353.949 55.8445 353.948C58.6503 353.944 61.456 353.949 64.2617 353.956C67.2082 353.962 70.1547 353.961 73.1012 353.961C78.0561 353.961 83.011 353.967 87.9659 353.976C93.6701 353.987 99.3742 353.991 105.078 353.99C111.175 353.99 117.271 353.994 123.368 354C125.112 354.002 126.855 354.002 128.598 354.003C131.358 354.003 134.118 354.008 136.878 354.014C137.883 354.016 138.887 354.017 139.891 354.017C143.053 354.016 146.213 354.049 149.374 354.115C149.852 354.124 150.331 354.133 150.824 354.142C152.275 354.176 153.725 354.23 155.176 354.289C156.027 354.32 156.879 354.35 157.756 354.381C161.094 354.958 163.243 356.402 165.398 358.996C166.412 361.481 166.55 363.584 166.153 366.233C165.046 368.732 163.761 370.174 161.455 371.619C159.539 372.26 158.357 372.377 156.369 372.377C155.738 372.379 155.106 372.381 154.455 372.383C153.762 372.382 153.069 372.381 152.355 372.379C151.623 372.38 150.891 372.381 150.136 372.383C147.691 372.386 145.246 372.384 142.801 372.381C141.074 372.382 139.346 372.383 137.618 372.383C133.964 372.384 130.311 372.383 126.657 372.38C122.989 372.377 119.321 372.376 115.652 372.38C104.073 372.39 92.4935 372.371 80.914 372.307C79.1073 372.297 77.3005 372.287 75.4937 372.279C70.1648 372.253 64.8364 372.21 59.5078 372.146C57.8584 372.128 56.209 372.114 54.5595 372.105C52.2906 372.091 50.0225 372.061 47.7538 372.026C47.0885 372.025 46.4233 372.025 45.7378 372.024C41.8317 371.942 39.6093 371.508 36.6174 368.926C34.6636 366.097 34.7707 362.807 35.275 359.501C36.4263 357.072 37.9897 355.727 40.486 354.693C42.7947 354.079 44.7351 353.947 47.1213 353.949Z" fill="#EFF4FE"/>
<path d="M74.921 402.562C75.8671 402.57 75.8671 402.57 76.8323 402.578C78.8922 402.597 80.9519 402.62 83.0117 402.645C84.4582 402.659 85.9046 402.674 87.3511 402.688C90.3726 402.719 93.394 402.752 96.4155 402.787C100.272 402.831 104.129 402.87 107.985 402.907C110.969 402.936 113.953 402.968 116.937 403C118.358 403.016 119.779 403.03 121.201 403.044C123.193 403.063 125.186 403.087 127.178 403.111C127.755 403.116 128.332 403.121 128.926 403.126C141.652 403.3 141.652 403.3 145.347 406.626C146.915 408.628 146.91 410.792 147.064 413.293C146.44 415.641 145.216 416.577 143.333 418.071C141.325 418.86 139.261 419.335 137.167 419.838C130.341 421.67 125.027 424.814 119.162 428.669C113.562 432.227 107.715 435.074 101.007 435.196C99.8123 435.236 99.8123 435.236 98.5929 435.278C91.2165 434.749 84.6913 430.334 78.6491 426.444C73.1848 423.026 68.4218 420.468 62.1136 419.207C59.1348 418.52 57.1577 417.222 54.7386 415.378C53.6951 413.285 53.8752 411.633 54.0675 409.319C55.7136 406.017 57.3041 404.464 60.7792 403.26C65.4797 402.602 70.1833 402.499 74.921 402.562Z" fill="#EFF4FE"/>
<path d="M270.815 193.846C272.712 195.749 273.501 196.812 273.751 199.526C273.522 202.194 273.231 203.294 271.528 205.333C267.732 208 264.92 208.419 260.346 208.36C259.737 208.361 259.127 208.362 258.499 208.363C257.217 208.362 255.935 208.354 254.653 208.34C252.697 208.32 250.742 208.326 248.785 208.335C247.535 208.331 246.285 208.325 245.035 208.318C244.163 208.321 244.163 208.321 243.274 208.324C239.342 208.262 236.514 207.584 233.397 204.996C231.546 202.651 231.733 200.105 231.929 197.254C233.155 194.405 234.572 193.254 237.298 191.868C239.153 191.577 239.153 191.577 241.16 191.524C242.27 191.488 242.27 191.488 243.403 191.452C244.171 191.436 244.939 191.421 245.73 191.406C246.479 191.383 247.229 191.36 248.001 191.336C266.235 190.816 266.235 190.816 270.815 193.846Z" fill="#EFF4FE"/>
<path d="M-17.0764 53.1846C-13.5298 54.6047 -11.2278 56.7352 -8.59233 59.4066C-8.18409 59.8142 -7.77584 60.2217 -7.35523 60.6416C-6.49772 61.5004 -5.64272 62.3617 -4.79012 63.2254C-3.48687 64.5434 -2.1732 65.8504 -0.858131 67.1566C-0.0237637 67.9948 0.809978 68.8337 1.64303 69.6733C2.03454 70.0619 2.42605 70.4505 2.82942 70.8509C4.83457 72.8973 6.34026 74.5725 7.08581 77.4206C7.03674 80.5214 6.80881 82.6138 4.94645 85.1206C2.78034 87.1002 1.94245 87.5762 -0.968245 87.5189C-5.01229 86.2855 -7.49755 84.8334 -10.4145 81.8097C-10.9498 81.2728 -10.9498 81.2728 -11.4959 80.725C-12.2437 79.9713 -12.9875 79.2136 -13.7272 78.4519C-14.848 77.2996 -15.9824 76.1622 -17.1196 75.0262C-25.671 66.4006 -25.671 66.4006 -26.9185 61.5499C-26.8653 58.6656 -26.7319 57.5522 -24.8787 55.2042C-22.1127 53.0904 -20.57 52.951 -17.0764 53.1846Z" fill="#EFF4FE"/>
<path d="M226.558 61.9365C228.451 63.1625 229.581 63.9608 230.586 65.9758C231.098 70.158 230.392 72.399 227.924 75.7875C223.694 80.8449 218.809 85.2668 213.806 89.5386C212.387 90.7975 210.97 92.0582 209.554 93.3202C207.311 95.1897 205.397 95.1444 202.572 95.1216C200.346 94.8324 199.208 93.841 197.698 92.2315C196.427 89.6815 196.626 86.9247 197.027 84.1528C199.051 79.5168 203.726 76.1982 207.407 72.8763C210.276 70.2661 212.981 67.4953 215.668 64.6972C219.185 61.0903 221.802 60.8317 226.558 61.9365Z" fill="#EFF4FE"/>
<path d="M105.077 5.38578C108.748 7.65197 110 10.0344 111.117 14.1377C111.365 15.9768 111.386 17.7748 111.361 19.6286C111.361 20.1312 111.362 20.6339 111.362 21.1517C111.361 22.2062 111.354 23.2608 111.343 24.3152C111.327 25.9151 111.329 27.5143 111.334 29.1142C111.33 30.146 111.325 31.1777 111.319 32.2095C111.32 32.9156 111.32 32.9156 111.321 33.6359C111.264 37.7015 110.759 41.5203 108.558 45.0217C106.389 47.1362 104.814 47.7517 101.805 47.8829C98.6061 46.7279 96.806 44.5984 95.0092 41.7398C94.3857 39.3819 94.3943 37.1575 94.456 34.7288C94.4563 34.0736 94.4566 33.4183 94.4569 32.7433C94.4625 31.3661 94.4795 29.9889 94.5073 28.6119C94.5478 26.5091 94.5486 24.4089 94.5439 22.3057C94.5542 20.9628 94.5668 19.6198 94.5819 18.2769C94.5828 17.652 94.5836 17.0271 94.5845 16.3832C94.7017 11.7716 95.6886 9.48619 98.9104 6.14315C101.127 4.99994 102.619 5.04577 105.077 5.38578Z" fill="#EFF4FE"/>
<path d="M201.054 285.446C206.978 288.513 211.499 294.75 215.933 299.619C217.164 300.932 218.439 302.183 219.731 303.434C222.208 305.901 223.501 308.177 223.874 311.702C223.43 314.01 222.316 315.729 221.021 317.677C219.036 318.957 217.498 319.069 215.149 319.107C211.18 317.726 208.267 315.299 205.362 312.341C204.972 311.953 204.582 311.564 204.18 311.164C203.364 310.347 202.552 309.527 201.742 308.704C200.509 307.453 199.263 306.217 198.014 304.982C197.218 304.182 196.423 303.381 195.63 302.579C195.26 302.214 194.891 301.85 194.511 301.474C191.527 298.407 189.644 295.521 189.644 291.085C190.445 288.372 191.521 287.235 193.671 285.446C196.095 284.231 198.502 284.763 201.054 285.446Z" fill="#EFF4FE"/>
</svg>
